<svg xmlns="http://www.w3.org/2000/svg" width="18.368" height="19.488" viewBox="0 0 18.368 19.488">
  <g id="arroba" transform="translate(-256.204 -6038.428)">
    <path id="Path_5" data-name="Path 5" d="M12.544-7.14C12.236-5.4,10.752-3.332,9.128-3.332c-1.232,0-1.848-.9-1.848-2.128,0-2.716,1.988-5.04,4.452-5.04a4.84,4.84,0,0,1,1.4.2ZM14.224.588A8.734,8.734,0,0,1,10,1.568c-4.144,0-7.2-2.884-7.2-7.56,0-5.684,3.836-9.3,8.4-9.3,4.34,0,6.776,2.912,6.776,6.972,0,3.248-1.6,5.152-3.024,5.124-.924-.028-1.26-1.008-.84-3.136l.952-5.068a7.382,7.382,0,0,0-3-.588A6.612,6.612,0,0,0,5.432-5.348c0,2.212,1.4,3.528,3.024,3.528A4.4,4.4,0,0,0,12.4-4.284h.112A2.072,2.072,0,0,0,14.588-1.82c2.632,0,4.984-2.464,4.984-6.664a7.777,7.777,0,0,0-8.148-8.092C5.208-16.576,1.2-11.592,1.2-5.824A8.334,8.334,0,0,0,9.688,2.912a10.2,10.2,0,0,0,4.984-1.12Z" transform="translate(255 6055.004)" fill="#fff"/>
  </g>
</svg>
