<svg xmlns="http://www.w3.org/2000/svg" width="30" height="30" viewBox="0 0 30 30">
  <g id="facebook2" transform="translate(-772 -5258)">
    <circle id="Ellipse_5" data-name="Ellipse 5" cx="15" cy="15" r="15" transform="translate(772 5258)" fill="#1562b9"/>
    <path id="Path_7" data-name="Path 7" d="M7.831-10.6a3.3,3.3,0,0,0-1.081-.2,1.2,1.2,0,0,0-.923.321,1.22,1.22,0,0,0-.3.866V-9H7.611v2.593H5.528V0H1.784V-6.407H.272V-9H1.784v-.826a3.659,3.659,0,0,1,.51-1.938,3.4,3.4,0,0,1,1.481-1.305,5.423,5.423,0,0,1,2.36-.466,6.406,6.406,0,0,1,1.7.193Z" transform="translate(783 5280)" fill="#fefefe"/>
  </g>
</svg>
