<svg xmlns="http://www.w3.org/2000/svg" width="16.462" height="16.5" viewBox="0 0 16.462 16.5">
  <g id="googleplus" transform="translate(-179.71 -198.226)">
    <path id="Path_10" data-name="Path 10" d="M188.68,208.314s-.788-.656-1.057-.875-1.345-1.016-.568-1.893a11.19,11.19,0,0,0,1.638-1.84,2.862,2.862,0,0,0,.315-1.51,3.69,3.69,0,0,0-1.525-3.007h1.372l1.338-.754-4.835.033a4.319,4.319,0,0,0-4.61,3.957,3.479,3.479,0,0,0,2.858,3.428,4.08,4.08,0,0,0,1.456.016s-.183.5-.193.548a2.029,2.029,0,0,0,.6,1.783,10.075,10.075,0,0,0-3.883.822c-1.943.867-2.441,3.417-1.2,4.533,0,0,1.733,1.993,5.918,1.086a4.4,4.4,0,0,0,3.287-2.769,3.14,3.14,0,0,0,.119-1.723A3.992,3.992,0,0,0,188.68,208.314Zm-5.771-5.283c-.632-1.634-.253-3.3.847-3.729s2.582.019,3.18,2.217c.46,1.691.222,3.318-.893,3.7C184.614,205.714,183.541,204.665,182.909,203.031Zm4.96,10.044a3.21,3.21,0,0,1-.727.537,3.749,3.749,0,0,1-.828.244c-2.409.616-5.24-.869-4.754-2.92.6-2.523,4.512-2.138,4.512-2.138l.711.523a4.682,4.682,0,0,1,1.038.914,2.375,2.375,0,0,1,.475.961A2,2,0,0,1,187.869,213.074Z" transform="translate(0 -0.152)" fill="#fff"/>
    <path id="Path_11" data-name="Path 11" d="M222.817,200.76h-2.534v-2.534h-1.239v2.534H216.51V202h2.534v2.534h1.239V202h2.534Z" transform="translate(-26.646)" fill="#fff"/>
  </g>
</svg>
