<svg xmlns="http://www.w3.org/2000/svg" width="30" height="30" viewBox="0 0 30 30">
  <g id="googleplus2" transform="translate(-853 -5256)">
    <circle id="Ellipse_5" data-name="Ellipse 5" cx="15" cy="15" r="15" transform="translate(853 5256)" fill="#e94239"/>
    <path id="Path_9" data-name="Path 9" d="M9.378-7.409,9.123-6.5H7.655a2.683,2.683,0,0,1,.167.888,2.743,2.743,0,0,1-.984,2.065,4.264,4.264,0,0,1-2.725,1,4.031,4.031,0,0,0-1.4.668.386.386,0,0,0-.176.29.43.43,0,0,0,.158.321,2.094,2.094,0,0,0,.8.294l1.705.4A4.134,4.134,0,0,1,7.075.22a1.5,1.5,0,0,1,.448,1.072A1.94,1.94,0,0,1,6.992,2.61a3.5,3.5,0,0,1-1.556.936,7.181,7.181,0,0,1-2.263.338,7.136,7.136,0,0,1-1.986-.259A2.666,2.666,0,0,1-.1,2.927a1.364,1.364,0,0,1-.387-.905,1.509,1.509,0,0,1,.25-.787A2.228,2.228,0,0,1,.4.563Q.633.4,1.74-.229a.89.89,0,0,1-.4-.694,1.156,1.156,0,0,1,.356-.747A4.445,4.445,0,0,1,3.2-2.54a2.68,2.68,0,0,1-1.534-.809A2.017,2.017,0,0,1,1.1-4.737,2.944,2.944,0,0,1,2.193-6.97a4.192,4.192,0,0,1,2.914-.984,3.7,3.7,0,0,1,1.081.132A2.9,2.9,0,0,1,7-7.409Zm-3.05,1.38a1.526,1.526,0,0,0-.391-1.107,1.36,1.36,0,0,0-1.024-.4,1.907,1.907,0,0,0-1.639,1,3.77,3.77,0,0,0-.646,2.079,1.534,1.534,0,0,0,.413,1.107,1.337,1.337,0,0,0,1,.431,1.759,1.759,0,0,0,.9-.255,2.237,2.237,0,0,0,.734-.7,3.686,3.686,0,0,0,.475-1.143A4.682,4.682,0,0,0,6.328-6.029ZM2.118,0A2.624,2.624,0,0,0,1.042.835a1.723,1.723,0,0,0-.365,1,1.138,1.138,0,0,0,.527.958,3.766,3.766,0,0,0,2.215.545,4.949,4.949,0,0,0,2.149-.426q.892-.426.892-1.1a.891.891,0,0,0-.33-.65,2.774,2.774,0,0,0-1.279-.5Q4.333.554,2.118,0Z" transform="translate(864 5274)" fill="#fefefe"/>
    <path id="Path_8" data-name="Path 8" d="M.234-5.235H2.175V-7.172H2.7v1.937H4.645V-4.7H2.7v1.921H2.175V-4.7H.234Z" transform="translate(874.997 5271.992)" fill="#fefefe"/>
  </g>
</svg>
