<svg xmlns="http://www.w3.org/2000/svg" width="15.02" height="14.436" viewBox="0 0 15.02 14.436">
  <path id="linkedin" d="M370.278,219.238h-3.154v-9.683h3.154Zm-1.51-11.016a1.717,1.717,0,1,1,1.866-1.71A1.793,1.793,0,0,1,368.768,208.222Zm13.148,5.552v5.464h-3.154v-4.106c0-.094,0-.191,0-.292.044-3.154-1.466-2.931-1.466-2.931a1.887,1.887,0,0,0-2,1.506v5.824h-3.153v-9.683H375.3v1.41a3.538,3.538,0,0,1,4.708-1.232A4.791,4.791,0,0,1,381.916,213.775Z" transform="translate(-366.902 -204.802)" fill="#fff"/>
</svg>
