<svg xmlns="http://www.w3.org/2000/svg" width="30" height="30" viewBox="0 0 30 30">
  <g id="linkedin2" transform="translate(-691 -5258)">
    <circle id="Ellipse_5" data-name="Ellipse 5" cx="15" cy="15" r="15" transform="translate(691 5258)" fill="#167bb1"/>
    <path id="Path_6" data-name="Path 6" d="M4.86-11.426a1.608,1.608,0,0,1-.576,1.283,2.252,2.252,0,0,1-1.516.492,2.2,2.2,0,0,1-1.5-.51,1.612,1.612,0,0,1-.584-1.266,1.561,1.561,0,0,1,.567-1.252,2.272,2.272,0,0,1,1.516-.479,2.293,2.293,0,0,1,1.516.479A1.551,1.551,0,0,1,4.86-11.426ZM.9,0V-9H4.641V0ZM12.278,0V-4.913a2.184,2.184,0,0,0-.25-1.2.915.915,0,0,0-.813-.365.88.88,0,0,0-.756.378,1.613,1.613,0,0,0-.272.967V0H6.442V-9h3.744v1.406h.035a3.177,3.177,0,0,1,1.2-1.2,3.29,3.29,0,0,1,1.644-.426q2.953,0,2.953,3.727V0Z" transform="translate(698 5278)" fill="#fefefe"/>
  </g>
</svg>
