<svg xmlns="http://www.w3.org/2000/svg" width="30" height="30" viewBox="0 0 30 30">
  <g id="pinterest" transform="translate(-934 -5258)">
    <circle id="Ellipse_5" data-name="Ellipse 5" cx="15" cy="15" r="15" transform="translate(934 5258)" fill="#b51d29"/>
    <path id="pinterest-2" data-name="pinterest" d="M1.926,8.8c.02-.051.223-.829.237-.882a5.44,5.44,0,0,1-.4-3.3c.291-1.857,2.259-2.77,4.117-2.77v0c2.326,0,4.068,1.3,4.069,3.525,0,1.745-1.05,4.051-2.844,4.051h0a2.559,2.559,0,0,1-1.664-.576,1.275,1.275,0,0,1-.176-1.168,15.437,15.437,0,0,0,.77-3.04,1.148,1.148,0,0,0-1.2-1.262,1.7,1.7,0,0,0-1.56,1.172,3.151,3.151,0,0,0,.019,2.3A14.936,14.936,0,0,1,2.58,9.963c-.5,1.707-1.181,3.867-1.035,5.07l.141,1.157.707-.927c.979-1.281,1.991-4.6,2.26-5.4A3.631,3.631,0,0,0,7.3,10.924a5.449,5.449,0,0,0,5-5.646C12.234,2.4,10.125,0,6.337,0V0C2.733,0,.629,1.928.114,4.359-.357,6.612.691,8.328,1.926,8.8Zm0,0" transform="translate(942.778 5265.413)" fill="#fefefe"/>
  </g>
</svg>
