<svg xmlns="http://www.w3.org/2000/svg" width="17.497" height="14.402" viewBox="0 0 17.497 14.402">
  <path id="twitter" d="M303.008,216.322a10.239,10.239,0,0,1-8.425,10.563,9.607,9.607,0,0,1-7.189-1.591,6.432,6.432,0,0,0,5.056-1.487c-3.023-.4-3.172-2.528-3.172-2.528a5.743,5.743,0,0,0,1.388-.049,3.669,3.669,0,0,1-2.676-3.519,5.251,5.251,0,0,0,1.388.347c-2.231-1.933-.942-4.808-.942-4.808,4.015,4.015,7.485,3.816,7.485,3.816a3.884,3.884,0,0,1,1.487-3.816,3.707,3.707,0,0,1,4.659.545,15.523,15.523,0,0,0,2.33-.892c-.148,1.041-1.487,1.933-1.487,1.933l1.982-.446C304.843,214.786,303.008,216.322,303.008,216.322Z" transform="translate(-287.395 -212.641)" fill="#fff"/>
</svg>
