<svg xmlns="http://www.w3.org/2000/svg" width="30" height="30" viewBox="0 0 30 30">
  <g id="twitter2" transform="translate(-610 -5258)">
    <circle id="Ellipse_5" data-name="Ellipse 5" cx="15" cy="15" r="15" transform="translate(610 5258)" fill="#03a9f4"/>
    <path id="twitter" d="M15.266,49.468a6.525,6.525,0,0,1-1.8.494,3.112,3.112,0,0,0,1.377-1.73,6.255,6.255,0,0,1-1.985.758,3.129,3.129,0,0,0-5.414,2.14,3.223,3.223,0,0,0,.073.714,8.859,8.859,0,0,1-6.451-3.274,3.131,3.131,0,0,0,.962,4.183,3.091,3.091,0,0,1-1.414-.385V52.4a3.144,3.144,0,0,0,2.507,3.075,3.124,3.124,0,0,1-.821.1,2.767,2.767,0,0,1-.593-.053,3.16,3.16,0,0,0,2.924,2.18,6.289,6.289,0,0,1-3.88,1.335A5.862,5.862,0,0,1,0,59a8.811,8.811,0,0,0,4.8,1.4A8.846,8.846,0,0,0,13.709,51.5c0-.138,0-.272-.011-.4A6.244,6.244,0,0,0,15.266,49.468Z" transform="translate(617.464 5219.257)" fill="#fff"/>
  </g>
</svg>
